<?xml version="1.0" encoding="UTF-8" standalone="no"?>
<!-- Created with Inkscape (http://www.inkscape.org/) -->

<svg
   width="256"
   height="75.980003"
   viewBox="0 0 256 75.980005"
   version="1.1"
   id="svg1"
   inkscape:version="1.3 (0e150ed6c4, 2023-07-21)"
   xml:space="preserve"
   sodipodi:docname="spacehs_intersect.svg"
   xmlns:inkscape="http://www.inkscape.org/namespaces/inkscape"
   xmlns:sodipodi="http://sodipodi.sourceforge.net/DTD/sodipodi-0.dtd"
   xmlns="http://www.w3.org/2000/svg"
   xmlns:svg="http://www.w3.org/2000/svg"><sodipodi:namedview
     id="namedview1"
     pagecolor="#505050"
     bordercolor="#ffffff"
     borderopacity="1"
     inkscape:showpageshadow="0"
     inkscape:pageopacity="0"
     inkscape:pagecheckerboard="1"
     inkscape:deskcolor="#505050"
     inkscape:document-units="px"
     showgrid="true"
     inkscape:zoom="2.8284271"
     inkscape:cx="113.49064"
     inkscape:cy="69.826794"
     inkscape:window-width="1920"
     inkscape:window-height="1057"
     inkscape:window-x="-8"
     inkscape:window-y="-8"
     inkscape:window-maximized="1"
     inkscape:current-layer="layer1"><inkscape:grid
       id="grid1"
       units="px"
       originx="0"
       originy="0"
       spacingx="1"
       spacingy="1"
       empcolor="#0099e5"
       empopacity="0.30196078"
       color="#0099e5"
       opacity="0.14901961"
       empspacing="4"
       dotted="false"
       gridanglex="30"
       gridanglez="30"
       visible="true" /></sodipodi:namedview><defs
     id="defs1"><filter
       inkscape:collect="always"
       style="color-interpolation-filters:sRGB"
       id="filter48"
       x="-0.21008741"
       y="-0.30892296"
       width="1.4201748"
       height="1.6178459"><feGaussianBlur
         inkscape:collect="always"
         stdDeviation="2.4831178"
         id="feGaussianBlur48" /></filter><filter
       inkscape:collect="always"
       style="color-interpolation-filters:sRGB"
       id="filter49"
       x="-0.015678581"
       y="-0.023054625"
       width="1.0313572"
       height="1.0461092"><feGaussianBlur
         inkscape:collect="always"
         stdDeviation="0.17916553"
         id="feGaussianBlur49" /></filter></defs><g
     inkscape:label="Layer 1"
     inkscape:groupmode="layer"
     id="layer1"><rect
       style="opacity:1;fill:#000000;fill-opacity:1;stroke-width:16;stroke-linecap:round;stroke-linejoin:round;paint-order:stroke fill markers"
       id="rect47"
       width="320"
       height="296"
       x="-20.0625"
       y="-20.046875" /><g
       id="g52"
       transform="translate(-6.7385224,-3.8848171)"><g
         id="g1"
         transform="matrix(4.5,0,0,4.5,133.25,14.875)"
         style="fill:#ffffff;fill-opacity:1"><path
           d="m 0,0 2.0915799,3.1371528 c 0.024664,-0.012105 0.049109,-0.024298 0.074219,-0.03559 0.041157,-0.018509 0.083063,-0.036147 0.125434,-0.052517 0.08474,-0.034667 0.1699384,-0.065146 0.2556424,-0.091146 0.085702,-0.026 0.1715804,-0.047337 0.2582465,-0.06467 0.086667,-0.017334 0.1740904,-0.030396 0.2617188,-0.039063 0.087629,-0.00867 0.1757323,-0.013021 0.2643229,-0.013021 0.1039994,0 0.2051638,0.00409 0.3033854,0.012153 0.098222,0.00806 0.1935805,0.019895 0.2860243,0.036024 0.046222,0.00806 0.091508,0.017193 0.1362847,0.027344 0.044777,0.01015 0.089045,0.021323 0.1323785,0.03342 0.043333,0.012097 0.085723,0.025394 0.1276042,0.039497 0.041881,0.014102 0.083253,0.029009 0.1236979,0.045139 0.040444,0.01613 0.079938,0.033487 0.1189236,0.051649 0.038985,0.018162 0.077462,0.03713 0.1150174,0.057292 0.037555,0.020162 0.074154,0.041254 0.110243,0.063368 0.036089,0.022114 0.07167,0.04525 0.1063368,0.069444 0.034667,0.024194 0.068369,0.049672 0.1015625,0.075955 0.033193,0.026283 0.065879,0.05337 0.097656,0.081597 0.031778,0.028227 0.06291,0.057439 0.093316,0.087674 0.030406,0.030234 0.060087,0.061491 0.088976,0.09375 0.029371,0.032259 0.057604,0.065625 0.08507,0.099826 0.027465,0.034201 0.054162,0.069237 0.079861,0.1054687 0.025699,0.036231 0.050343,0.073362 0.074219,0.1115452 0.023876,0.038183 0.046983,0.077418 0.069011,0.1176215 0.022028,0.040204 0.043191,0.081425 0.063368,0.1236979 0.020177,0.042273 0.039369,0.085599 0.057726,0.1297743 0.018357,0.044176 0.035931,0.08927 0.052517,0.1354167 0.016588,0.046146 0.032189,0.093345 0.046875,0.141493 0.029371,0.096296 0.054801,0.1965412 0.076823,0.3007813 0.022029,0.1042401 0.040433,0.2124683 0.055122,0.3246528 0.014676,0.1121844 0.025631,0.2283954 0.032986,0.3485243 0.00736,0.1201286 0.011285,0.2443225 0.011285,0.3723958 0,0.077037 -0.00401,0.1654776 -0.011719,0.265625 0,0.092443 -0.00357,0.1773036 -0.011285,0.2543403 H 3.7022569 L 2.8090278,7.7864583 c 0.023488,0.010703 0.045857,0.022346 0.070312,0.032118 0.051244,0.020476 0.1047866,0.038752 0.1601562,0.055121 0.055371,0.01637 0.1127997,0.03077 0.1723091,0.042969 0.05951,0.012199 0.1210995,0.022196 0.1848958,0.030382 0.063795,0.00819 0.1294914,0.014525 0.1974826,0.018663 0.067992,0.00414 0.1382817,0.00608 0.2105035,0.00608 0.084741,0 0.1677234,-0.00182 0.2486979,-0.00564 0.080975,-0.00382 0.159943,-0.00966 0.2369792,-0.017361 0.077037,-0.0077 0.1521528,-0.017497 0.2252604,-0.02908 0.073108,-0.011583 0.1442087,-0.024957 0.2135417,-0.040365 0.071259,-0.015407 0.1386573,-0.030948 0.2022569,-0.046875 0.0636,-0.015927 0.1234016,-0.032241 0.1792535,-0.048611 0.055851,-0.01637 0.1080586,-0.033057 0.15625,-0.049913 0.048192,-0.016856 0.092368,-0.033882 0.1328125,-0.051215 L 5.4930556,8.2604167 7,6 3,0 Z m 3.3428819,4.0082465 c -0.053927,0 -0.1065628,0.00252 -0.157118,0.00781 -0.050556,0.0053 -0.099081,0.013278 -0.1462674,0.023872 -0.047184,0.010593 -0.092903,0.024043 -0.1367187,0.03993 -0.043816,0.015889 -0.085858,0.034371 -0.1263021,0.055556 -0.00496,0.00236 -0.00941,0.0054 -0.014323,0.00781 L 3.6119791,5.417964 H 4.578993 c 0,-0.048148 -0.00147,-0.095618 -0.00477,-0.1423611 C 4.570913,5.2288599 4.565773,5.1828409 4.559032,5.1375821 4.5522878,5.0923278 4.5439893,5.0480794 4.5338542,5.0043403 4.5237189,4.9606012 4.5117449,4.9173701 4.4982639,4.875 4.4847818,4.830704 4.469547,4.7879136 4.452691,4.7469618 4.435835,4.70601 4.4173575,4.6668956 4.3971354,4.6293403 4.3769133,4.5917851 4.355174,4.5559324 4.3315972,4.5217014 4.3080203,4.4874706 4.2826062,4.454859 4.2556424,4.4240451 4.2306054,4.3913041 4.2037864,4.3604471 4.1753474,4.3315971 4.1469074,4.3027471 4.1168474,4.2759051 4.0850694,4.2508681 4.0532914,4.2258311 4.0199694,4.2026231 3.984809,4.1814231 3.949649,4.1602231 3.912651,4.1410311 3.8741319,4.1236971 3.8375411,4.104439 3.7991247,4.0877946 3.7586806,4.0733507 3.7182368,4.0589068 3.6758054,4.0469553 3.6315104,4.0373264 3.5872136,4.0276964 3.5411381,4.020487 3.4930556,4.015625 3.4449728,4.010765 3.3948814,4.0082465 3.3428819,4.0082465 Z M 2.0798611,8.8802083 0,12 H 3 L 4.9856771,9.0212674 C 4.8644663,9.0438962 4.7424742,9.0654199 4.6202257,9.0846354 4.4979727,9.1038576 4.375406,9.1208938 4.2526042,9.1349826 4.1298045,9.1490715 4.0069631,9.1598518 3.8841146,9.1671007 3.7612638,9.1743451 3.6384587,9.1779604 3.516059,9.1766493 3.454857,9.1759826 3.3938925,9.174118 3.3328993,9.1710069 3.2719017,9.1678958 3.2109023,9.1633521 3.1501736,9.1575521 3.0894449,9.1517743 3.028718,9.1449736 2.968316,9.1362847 2.9079184,9.1276181 2.8477669,9.1172398 2.7877604,9.1054688 2.7277539,9.093691 2.6680601,9.0801995 2.6085069,9.0651042 2.5489538,9.0500153 2.4895932,9.0333836 2.4305556,9.0147569 2.3715157,8.9961348 2.3128001,8.9755007 2.2543403,8.953125 2.1958827,8.9307517 2.1376809,8.9065416 2.0798611,8.8802083 Z"
           style="fill:#453a62;fill-opacity:1"
           id="path49" /><path
           fill="#5e5086"
           d="M 4,12 8,6 4,0 h 3 l 8,12 H 12 L 9.5,8.25 7,12"
           id="path2"
           style="fill:#5e5086;fill-opacity:1" /><path
           d="m 10.333333,3.5 1.333334,2 h 4.666666 c 0.01197,-0.0625 0.02645,-0.124568 0.04297,-0.1861979 0.01652,-0.06163 0.03501,-0.1227586 0.05556,-0.1831597 0.02054,-0.060401 0.04324,-0.1200059 0.06727,-0.1788195 0.02403,-0.058814 0.04941,-0.1167439 0.07639,-0.1736111 0.02698,-0.056867 0.05523,-0.1129726 0.08464,-0.1675347 0.0294,-0.054562 0.05985,-0.1078241 0.09115,-0.1597222 0.03129,-0.051898 0.06371,-0.1021663 0.09635,-0.1510417 0.03265,-0.048875 0.06549,-0.096433 0.09896,-0.1419271 0.03347,-0.045494 0.06737,-0.088889 0.101128,-0.1306424 0.03375,-0.041753 0.06762,-0.081703 0.101129,-0.1193576 0.03351,-0.037654 0.06666,-0.073141 0.09939,-0.1063368 0.03273,-0.033196 0.06494,-0.064068 0.09635,-0.092448 0.03142,-0.028379 0.06201,-0.054487 0.09158,-0.077691 0.02957,-0.023204 0.05831,-0.043528 0.0855,-0.061198 0.02719,-0.017669 0.05298,-0.032495 0.07726,-0.044271 0.02428,-0.011776 0.04687,-0.020517 0.06771,-0.026042 z m 2,3 1.333334,2 H 17 17.666667 c -0.02083,-0.00552 -0.04343,-0.014265 -0.06771,-0.026042 -0.02427,-0.011777 -0.0505,-0.0266 -0.07769,-0.044271 -0.0272,-0.01767 -0.0555,-0.037994 -0.08507,-0.061198 -0.02957,-0.023203 -0.0606,-0.049312 -0.09201,-0.077691 -0.0314,-0.02838 -0.06362,-0.059252 -0.09635,-0.092448 -0.03273,-0.033197 -0.06502,-0.069117 -0.09852,-0.1067708 -0.03351,-0.037654 -0.06781,-0.07717 -0.101563,-0.1189237 -0.03375,-0.041754 -0.06766,-0.085583 -0.101128,-0.1310763 -0.03346,-0.045494 -0.06632,-0.092183 -0.09896,-0.1410591 -0.03263,-0.048875 -0.06506,-0.1000115 -0.09635,-0.1519097 -0.0313,-0.051898 -0.06174,-0.1047263 -0.09115,-0.1592882 -0.0294,-0.054562 -0.05765,-0.1106679 -0.08464,-0.1675347 -0.027,-0.056867 -0.05279,-0.1147976 -0.07682,-0.1736111 -0.02403,-0.058814 -0.04673,-0.1188527 -0.06727,-0.1792535 -0.02053,-0.060401 -0.0386,-0.1210962 -0.05512,-0.1827257 C 16.359779,6.6245698 16.345303,6.5624995 16.333333,6.5 Z"
           style="fill:#8f4e8b;fill-opacity:1;stroke-width:16;stroke-linecap:round;stroke-linejoin:round;paint-order:stroke fill markers"
           id="path46"
           inkscape:label="path46" /></g><g
         id="g47"
         style="fill:#8f4e8b;fill-opacity:1"><path
           d="m 123.13867,27.660156 c -8.62197,0 -13.4668,6.512571 -13.4668,14.300781 0,6.652727 2.97998,14.246091 13.6758,14.246091 3.62418,0 6.52596,-0.870407 7.48828,-1.351562 l -0.88477,-5.199219 c -7.13973,2.834324 -13.64641,0.477901 -13.83203,-7.695308 0,-10.459474 8.81573,-9.5187 12.94727,-7.748042 l 1.35351,-5.148438 c -0.572,-0.234 -1.15285,-0.439734 -1.74219,-0.615234 -1.62489,-0.483887 -3.48476,-0.789062 -5.53906,-0.789062 z"
           style="font-weight:500;font-size:52px;line-height:0;font-family:Ubuntu;-inkscape-font-specification:'Ubuntu Medium';letter-spacing:1.38889px;word-spacing:-2.5px;fill:#8f4e8b;fill-opacity:1;stroke-width:16;stroke-linecap:round;stroke-linejoin:round;paint-order:stroke fill markers"
           id="path32"
           sodipodi:nodetypes="sssccsccsss" /><path
           d="m 91.070312,27.660156 c -4.72704,0 -8.172665,1.178349 -8.373046,1.248047 l 0.78125,5.095703 c 2.671932,-0.971608 6.034027,-1.039067 6.966796,-1.039067 5.187631,0 5.538304,3.470842 5.56445,6.447265 -1.979429,-0.475063 -3.917813,-0.572265 -4.626954,-0.572265 -3.674441,0 -11.285155,0.912896 -11.285155,8.476562 0,3.293593 1.005198,8.78711 10.972658,8.78711 4.923739,0 9.531089,-0.875525 11.023439,-1.195313 v -16.48437 c 0,-8.46322 -4.866904,-10.763674 -11.023439,-10.763674 z m 4.939454,16.171872 v 6.96875 c -1.587528,0.328454 -9.61914,1.725017 -9.61914,-3.640619 0,-4.737165 7.56379,-3.944735 9.61914,-3.328131 z"
           style="font-weight:500;font-size:52px;line-height:0;font-family:Ubuntu;-inkscape-font-specification:'Ubuntu Medium';letter-spacing:1.38889px;word-spacing:-2.5px;fill:#8f4e8b;fill-opacity:1;stroke-width:16;stroke-linecap:round;stroke-linejoin:round;paint-order:stroke fill markers"
           id="path31"
           sodipodi:nodetypes="sccscssscsssccsc" /><path
           d="m 60.300781,27.763672 c -4.489049,0 -8.493831,0.871539 -10.660156,1.457031 v 35.931641 h 6.292969 V 54.595703 c 0.818805,0.450344 3.072033,1.507813 6.1875,1.507813 8.472077,0 12.011717,-6.902077 12.011717,-14.142575 0,-9.5006 -6.302206,-14.197265 -13.832035,-14.197265 z m -0.623047,5.408203 c 4.430591,0 8.007813,2.102494 8.007813,8.892579 0,7.515809 -4.144304,8.630863 -6.603516,8.630863 -2.459017,0 -4.225712,-0.924221 -5.148437,-1.558593 V 33.587891 c 1.413601,-0.392683 3.359787,-0.416016 3.74414,-0.416016 z"
           style="font-weight:500;font-size:52px;line-height:0;font-family:Ubuntu;-inkscape-font-specification:'Ubuntu Medium';letter-spacing:1.38889px;word-spacing:-2.5px;fill:#8f4e8b;fill-opacity:1;stroke-width:16;stroke-linecap:round;stroke-linejoin:round;paint-order:stroke fill markers"
           id="path30"
           sodipodi:nodetypes="sccccsssssssccs" /><path
           d="m 31.041016,18.664062 c -7.464978,0 -12.58398,3.678182 -12.58398,10.451173 -0.07227,4.15367 2.422668,7.056202 5.978518,8.892578 2.804052,1.237083 3.775288,1.455894 5.408203,2.09375 4.337323,1.694271 6.136722,3.333424 6.136722,5.966797 0,4.431886 -4.892888,4.57617 -6.759766,4.57617 -2.883563,0 -6.308398,-0.528753 -9.568359,-2.339846 l -1.923828,5.355469 c 4.354051,2.539873 10.447873,2.652349 11.492187,2.652349 5.117008,0 13.572268,-1.346222 13.572268,-10.244145 0,-2.404218 -0.390466,-7.024718 -6.24023,-9.724609 -3.043521,-1.521761 -4.854419,-1.927497 -7.228515,-3.015625 -3.488275,-1.668298 -4.003924,-3.195148 -4.003924,-4.835936 0,-2.881163 2.358884,-4.160156 5.615238,-4.160156 3.089633,0 5.979682,0.777192 8.216797,2.027344 l 2.027343,-5.302734 c -1.010917,-0.59261 -4.42139,-2.308606 -10.138671,-2.39258 z"
           style="font-weight:500;font-size:52px;line-height:0;font-family:Ubuntu;-inkscape-font-specification:'Ubuntu Medium';letter-spacing:1.38889px;word-spacing:-2.5px;fill:#8f4e8b;fill-opacity:1;stroke-width:16;stroke-linecap:round;stroke-linejoin:round;paint-order:stroke fill markers"
           id="path29"
           sodipodi:nodetypes="sscsssccssccssccss" /><path
           d="m 142.66211,28.992187 c -2.23233,1.096014 -7.05861,4.461161 -7.05861,13.072266 0,4.3617 1.24083,10.020239 7.00587,12.771484 l 3.28125,-4.921875 c -1.45606,-0.66356 -3.48739,-2.258661 -3.78711,-6.029296 h 7.80664 L 151.25,41.875 149.50391,39.255859 h -7.34766 c 0.29052,-2.447049 1.35495,-4.511885 3.52339,-5.736328 z m 15.30664,23.054688 -2.2832,3.423828 c 1.2869,-0.272342 2.0408,-0.547759 2.69531,-0.875003 z"
           style="font-weight:500;font-size:52px;line-height:0;font-family:Ubuntu;-inkscape-font-specification:'Ubuntu Medium';letter-spacing:1.38889px;word-spacing:-2.5px;fill:#8f4e8b;fill-opacity:1;stroke-width:16;stroke-linecap:round;stroke-linejoin:round;paint-order:stroke fill markers"
           id="path47"
           sodipodi:nodetypes="csccccccccccccc" /></g><path
         style="fill:#8e63ff;fill-opacity:1;stroke-width:72;stroke-linecap:round;stroke-linejoin:round;paint-order:stroke fill markers;filter:url(#filter49)"
         d="m 229.34616,28.507812 c -0.56585,-0.01123 -1.2384,0.756972 -1.68164,0.08594 -0.33027,-0.05795 -0.91401,0.04013 -0.98437,0.396484 -0.24981,-0.522288 -0.88464,-0.166355 -0.83008,0.320313 -0.0503,-0.55616 -1.10962,-0.08793 -0.61133,0.28125 -0.62196,0.119097 -1.76194,-0.58629 -1.88672,0.458984 -0.26223,0.505954 -1.44236,0.02589 -1.18554,0.863281 -0.0352,0.87971 -1.39109,0.608676 -1.44532,1.488282 -0.35684,-0.09383 -0.66423,-0.146526 -0.89453,0.169922 -0.73864,-0.125131 0.3892,0.438181 0.0566,0.8125 -0.087,0.420722 -0.91557,0.570962 -0.24609,0.939453 0.42847,0.403368 -0.0726,0.544669 -0.42969,0.449219 -0.3497,0.105372 -0.21579,0.51942 -0.46094,0.769531 -0.20962,0.333505 0.59655,0.495023 -0.10351,0.667969 0.41048,4.61e-4 0.19234,0.461307 0.32422,0.707031 l 0.25195,-0.142578 c -0.2703,0.79128 -0.26897,1.646022 -0.5293,2.427734 0.266,0.231424 0.33015,0.602099 0.50782,0.888672 -0.66538,-0.09533 0.14881,1.149556 0.21875,0.486328 l -0.0996,-0.09766 0.48191,0.245837 c 0.42202,0.03898 -0.57775,0.416021 0.022,0.381116 0.33184,-0.02869 0.50817,0.733076 0.0684,0.568359 0.0114,0.724195 0.99662,0.825381 1.17188,1.488281 0.43153,0.339816 -0.43294,0.739893 0.35156,0.671876 0.44805,-0.0461 -0.50539,0.55523 0.0977,0.197265 0.4889,-0.147999 0.25459,0.515805 0.71093,0.246094 0.155,0.02397 -0.16607,-0.289308 0.19532,-0.154297 0.40959,0.259328 0.19493,0.835354 0.26757,1.115234 0.0965,-0.109232 0.42579,-0.541856 0.46289,-0.126953 -0.58909,0.195736 0.64602,0.833366 0.63086,0.298828 -0.0585,0.185895 0.35663,0.275862 0.25,0.02734 0.18984,0.578009 0.7153,-0.429832 0.86328,0.103516 0.32035,0.02425 0.28973,-0.223528 0.65626,-0.175781 0.0255,-0.382072 0.0921,0.767303 -0.29297,0.236328 -0.24881,0.157342 0.139,0.761778 0.26367,0.974609 0.29395,-0.195449 0.61171,-0.241943 0.85937,-0.236328 0.17623,-0.180844 0.55434,-1.062627 0.36524,-0.154297 -0.32245,0.315592 0.49265,0.295135 0.47656,-0.01563 0.30907,0.246407 -0.58316,0.635825 0.0469,0.638672 0.45599,0.229567 0.71499,-0.412481 0.22852,-0.556641 0.0899,-0.157035 0.60442,0.11831 0.50781,-0.222656 -0.001,0.451396 1.06749,0.990302 1.00196,0.273438 l -0.35547,-0.181641 c 0.0942,-0.09444 0.7247,-0.19708 0.6875,-0.634766 0.31987,-0.487367 0.6234,0.152641 0.18359,0.394531 0.12989,0.1 0.5301,-0.220553 0.4082,0.09766 -0.6226,0.375377 0.4805,0.332484 0.44336,-0.09766 0.37134,-0.247821 0.67819,0.420985 1.14649,0.164063 l 0.36523,-0.136719 0.30469,-0.166015 c -0.51362,0.175411 -0.10998,-0.904892 0.0957,-0.4375 l 0.47461,0.130859 c -0.15184,0.171263 -0.87967,0.164412 -0.0742,0.322266 0.25938,0.0295 0.82453,0.169213 0.80079,-0.261719 0.1671,0.42412 0.62481,0.0631 0.68554,0.183594 0.19087,0.298738 0.73021,-0.193441 0.23047,-0.220703 -0.1353,-1.011913 1.11996,-0.715234 1.58203,-1.265626 0.61193,-0.195894 0.77913,-0.758891 1.33117,-1.068226 0.19793,-0.233051 -0.29566,0.708947 0.28211,0.08385 0.29456,0.375693 0.84774,0.0036 0.51368,-0.341797 0.29579,-0.285209 0.61562,0.1856 0.88476,-0.04687 -0.70489,-0.20313 0.75066,-0.372424 0.39816,-0.773405 0.19358,-0.57816 1.00284,-0.156151 1.12886,-0.825571 0.49822,-0.680723 1.17004,-1.498048 2.09692,-0.980895 0.43917,0.253126 -0.0301,-0.444746 0.40731,-0.392786 -0.13025,-0.271612 0.48374,-0.648315 -0.0312,-0.759765 0.32129,0.125075 0.38231,0.395217 0.71875,0.173828 -0.46756,-0.555756 0.81461,-0.485881 0.61689,-1.115506 0.0627,-0.246695 0.58627,-0.30523 0.25616,-0.585666 l 0.39453,0.05859 c 0.0806,0.271251 0.54926,-0.117622 0.19922,-0.279297 0.24492,-0.07339 0.75017,0.1952 0.69726,-0.335938 -0.0572,0.228146 -0.62708,-0.101504 -0.125,0.197266 -0.20071,-0.153967 -0.8035,0.463611 -0.3164,-0.212891 l -0.18164,0.335938 c 0.41701,-0.419022 -1.06213,-0.662164 0.29686,-0.543924 0.53297,0.0071 -1.09409,-0.316847 0.0313,-0.50881 -0.51719,0.543194 -0.25752,-0.995621 -0.71038,0.251171 -0.0376,-0.227036 -0.69859,0.455822 -0.72517,-0.214062 l -0.27734,0.07422 c 0.067,-0.416757 -0.88074,0.631171 -0.375,-0.464844 -0.29789,-0.255114 -0.0327,0.09957 -0.24414,0.195312 0.0198,-0.392475 -0.85379,1.038731 -0.10773,-0.432949 0.19758,-0.314742 -0.4387,-0.73524 -0.5993,-0.367832 -0.52658,0.425434 0.4487,-0.764782 -0.58985,0.06641 0.32173,0.490543 -0.70106,-0.19419 -0.1582,-0.408203 l 0.002,-0.0078 c -0.26257,0.05159 -0.75874,0.227455 -0.23438,-0.248047 0.49265,0.159995 -0.41689,-0.0356 -0.19531,-0.248047 l -0.14844,0.148438 c -0.0564,-0.188105 -0.49627,0.05316 -0.38867,-0.175782 l -0.0137,-0.285156 0.41992,-0.07422 c -0.23811,0.04768 -0.47358,-0.408575 -0.60742,-0.03711 l -0.0566,-0.328125 -0.0449,-0.451172 c 0.0109,0.53828 -0.0103,-0.316226 -0.24023,-0.144531 -0.17015,-0.112789 -0.33,-0.851051 -0.29688,-0.326172 l -0.27343,0.375 -0.3086,-0.203125 c -0.0657,0.547985 -0.30052,-1.117447 -0.62471,-0.234632 -0.26943,-0.07237 0.45525,-0.75704 -0.23857,-0.325915 0.54532,0.124593 -0.48241,0.554765 -0.24414,0.103516 l -0.23047,-0.445313 c 0.33659,-0.163033 -0.52912,-0.740406 -0.3565,0.158406 -0.23533,0.03516 -0.28274,-0.847409 -0.55756,-0.297078 -0.0477,-0.855077 -1.14214,-0.776105 -1.42969,-1.478515 -0.29483,-0.02127 -0.69747,-0.153088 -0.77734,0.298828 -0.0478,-0.395215 -0.45309,0.360621 -0.62891,-0.01563 0.53361,-0.499362 -0.66516,-0.437271 -0.71289,-0.96875 -1.09626,-0.446916 -2.42942,-0.345397 -3.38867,-0.990235 -0.31413,-4.49e-4 -0.54424,-0.467865 -0.87305,-0.263672 z m 5.23633,2.03711 c 0.11643,-0.07283 -0.19995,-0.127254 0,0 z m 5.99219,3.5625 c -0.29422,0.321069 0.36875,-0.418388 0.17578,0.248047 l -0.29102,-0.08203 c 0.31072,-0.04139 -0.17687,-0.02509 0.11524,-0.166017 z m 1.04687,0.289062 c 0.15331,0.04075 -0.007,-0.545686 0,0 z m -0.17773,-0.0039 c 0.27702,0.194468 0.0868,-0.360531 0,0 z m 0.27148,0.392578 c 0.23231,0.169673 -0.0277,-0.09153 0,0 z m -22.60546,0.306641 c -0.0138,0.258224 -0.19137,-0.123122 0,0 z m 23.24804,0.191406 c 0.14111,0.154132 0.11562,-0.522064 0,0 z m 0.15039,0.199219 c 0.22689,-0.646356 0.2646,1.403978 -0.21289,-0.02344 0.46513,0.275186 -0.38835,-0.442659 0.21289,0.02344 z m -23.36914,-0.08398 c 0.38614,0.255782 -0.6251,-0.01506 0,0 z m 25.82227,1.142578 c -0.17458,0.06462 0.0186,-0.157458 0,0 z m 0.95508,0.423828 c 0.27637,0.30756 0.11413,-0.411047 0,0 z m -0.77149,0.361328 c 0.0258,0.08337 -0.64855,0.289321 -0.2207,-0.08789 z m 0.10352,0.01172 c -0.006,0.0395 -0.0157,-0.0078 0,0 z m 0.10156,0.427734 0.54098,0.0047 c 0.55082,0.107887 -0.69796,-0.640618 -0.59176,-0.38361 z m -24.16602,6.292969 -0.0527,0.195312 c 0.0792,0.0082 0.20714,-0.373931 0.0527,-0.195312 z m 0.60157,0.199218 c 0.0818,0.139289 0.0172,-0.137983 0,0 z m -0.0137,0.05078 c 0.0558,0.138143 0.064,-0.105212 0,0 z m -0.18164,0.21875 c -0.49832,0.475099 0.66693,0.552334 0.23438,-0.05469 l -0.0781,-0.04883 z m 3.17774,0.302734 c 0.27413,0.436597 -0.73066,0.179939 -0.33203,-0.113281 z m -0.79102,-0.04297 c 0.0734,0.457349 -0.37466,-0.06046 0,0 z m 0.20313,0.300782 c -0.12202,0.281103 0.71271,0.111052 0.14843,0.332031 -0.11449,-5.03e-4 -0.47888,-0.487911 -0.14843,-0.332031 z m 9.09765,0.1875 c 0.19748,0.273929 0.0493,0.14123 -0.11718,-0.0039 z m -9.03711,0.06641 c 0.0729,0.06937 -0.0159,-0.12532 0,0 z m 7.51954,0.09375 c 0.43025,0.606692 -1.00166,0.590194 -0.36915,-0.02148 l 0.0938,-0.02734 z m -6.85938,0.476562 -0.084,-0.349609 z m 2.4082,-0.107421 c 0.20646,0.457944 -1.13881,-0.873763 0,0 z m -1.41992,-0.103516 c -0.009,0.610606 -0.478,-0.402953 0,0 z m 0.49219,0.03711 c 0.16548,0.266453 -0.37493,0.786323 -0.1582,0.199219 -0.041,-0.08355 0.0447,-0.265266 0.1582,-0.199219 z M 227.19187,46 c 0.0328,0.31094 -0.60165,0.0608 -0.1211,-0.09766 z m -1.11524,0.115234 c 0.0418,0.271709 -0.59786,-0.09 -0.17187,-0.09766 z m -0.28515,0.189454 c 0.0564,0.340747 -0.25802,-0.121609 0,0 z m 0.54101,0.15625 c -0.23083,0.38069 0.67767,0.295614 0.31445,-0.002 0.0739,0.387969 -0.17878,-0.07592 -0.31445,0.002 z m 1.92774,0.646484 c 0.30962,-0.01625 0.23801,-0.495618 0,0 z"
         id="path10"
         sodipodi:nodetypes="cscscscscscscscscscscscscscscscscscscscscscscscscscscscscscscscscscscscscscscscscscscscscscsc"
         transform="matrix(1.5,0,0,1.5,-118,-14.375)" /><path
         style="opacity:0.856979;fill:#ffffff;fill-opacity:1;stroke-width:74.4701;stroke-linecap:round;stroke-linejoin:round;paint-order:stroke fill markers;filter:url(#filter48)"
         d="m 225.42138,32.705559 c -0.58527,-0.01162 -1.28089,0.782941 -1.73933,0.08889 -0.3416,-0.05994 -0.94537,0.0415 -1.01814,0.410085 -0.25838,-0.540205 -0.91499,-0.172062 -0.85856,0.331301 -0.0521,-0.575239 -1.14768,-0.09095 -0.6323,0.2909 -0.6433,0.123182 -1.82239,-0.606404 -1.95144,0.474729 -0.27123,0.523312 -1.49185,0.02678 -1.22622,0.892897 -0.0364,0.909889 -1.43881,0.629558 -1.4949,1.53934 -0.36908,-0.09705 -0.68702,-0.151553 -0.92522,0.175751 -0.76398,-0.129424 0.40255,0.453214 0.0585,0.840374 -0.09,0.435155 -0.94697,0.590549 -0.25452,0.971682 0.44316,0.417206 -0.0751,0.563354 -0.44443,0.46463 -0.3617,0.108986 -0.2232,0.537239 -0.47676,0.79593 -0.21681,0.344947 0.61701,0.512005 -0.10706,0.690885 0.42456,4.77e-4 0.19894,0.477133 0.33535,0.731286 l 0.26059,-0.147469 c -0.27958,0.818425 -0.2782,1.70249 -0.54746,2.51102 0.27512,0.239363 0.34148,0.622755 0.52524,0.919159 -0.68821,-0.0986 0.15391,1.188993 0.22626,0.503012 l -0.10302,-0.10101 0.49844,0.25427 c 0.4365,0.04032 -0.59757,0.430294 0.0227,0.394191 0.34323,-0.02967 0.5256,0.758225 0.0708,0.587857 0.0118,0.74904 1.03081,0.853697 1.21208,1.539339 0.44634,0.351473 -0.44779,0.765276 0.36363,0.694925 0.46342,-0.04768 -0.52273,0.574277 0.10104,0.204032 0.50568,-0.153076 0.26333,0.5335 0.73532,0.254537 0.16032,0.02479 -0.17176,-0.299233 0.20202,-0.15959 0.42365,0.268224 0.20162,0.864011 0.27676,1.153493 0.0998,-0.11298 0.44039,-0.560445 0.47877,-0.131308 -0.60931,0.202451 0.66818,0.861956 0.6525,0.309079 -0.0605,0.192272 0.36886,0.285326 0.25858,0.02827 0.19635,0.597839 0.73983,-0.444577 0.89289,0.107068 0.33134,0.02508 0.29967,-0.231197 0.67878,-0.181812 0.0263,-0.395178 0.0952,0.793627 -0.30303,0.244436 -0.25734,0.16274 0.14377,0.787912 0.27272,1.008044 0.30403,-0.202154 0.6327,-0.250243 0.88885,-0.244435 0.18228,-0.187048 0.57336,-1.099082 0.37777,-0.15959 -0.33351,0.326418 0.50956,0.305259 0.49291,-0.01617 0.31968,0.254861 -0.60317,0.657638 0.0485,0.660583 0.47164,0.237443 0.73952,-0.426632 0.23636,-0.575737 0.093,-0.162422 0.62516,0.122369 0.52524,-0.230294 -8.6e-4,0.466881 1.10411,1.024275 1.03633,0.282818 l -0.36767,-0.187872 c 0.0974,-0.09768 0.74956,-0.203842 0.71109,-0.656543 0.33084,-0.504087 0.64478,0.157878 0.18989,0.408066 0.13435,0.10343 0.54829,-0.228119 0.4222,0.10101 -0.64396,0.388256 0.49699,0.343891 0.45857,-0.10101 0.38408,-0.256323 0.70146,0.435428 1.18582,0.169691 l 0.37776,-0.141409 0.31515,-0.17171 c -0.53124,0.181429 -0.11376,-0.935935 0.099,-0.452509 l 0.4909,0.135348 c -0.15705,0.177139 -0.90985,0.170053 -0.0768,0.333321 0.26828,0.03051 0.85282,0.175019 0.82827,-0.270697 0.17283,0.43867 0.64624,0.06526 0.70906,0.189893 0.19742,0.308986 0.75526,-0.200078 0.23838,-0.228275 -0.13995,-1.046627 1.15838,-0.739771 1.6363,-1.309045 0.63293,-0.202614 0.80586,-0.784925 1.37683,-1.104872 0.20473,-0.241047 -0.3058,0.733268 0.2918,0.08673 0.30466,0.388582 0.87682,0.0037 0.5313,-0.353522 0.30594,-0.294994 0.63673,0.191966 0.91511,-0.04848 -0.72907,-0.210098 0.77641,-0.3852 0.41182,-0.799937 0.20022,-0.597995 1.03724,-0.161509 1.16759,-0.853893 0.51531,-0.704076 1.21017,-1.549441 2.16886,-1.014546 0.45423,0.26181 -0.0311,-0.460004 0.42128,-0.406261 -0.13472,-0.28093 0.50033,-0.670557 -0.0323,-0.78583 0.33231,0.129366 0.39542,0.408775 0.74341,0.179791 -0.4836,-0.574821 0.84255,-0.502549 0.63805,-1.153774 0.0649,-0.255158 0.60638,-0.315701 0.26495,-0.605758 l 0.40806,0.0606 c 0.0834,0.280557 0.56811,-0.121657 0.20606,-0.288879 0.25332,-0.07591 0.77591,0.201897 0.72118,-0.347462 -0.0592,0.235973 -0.6486,-0.104986 -0.12929,0.204034 -0.20759,-0.15925 -0.83106,0.479515 -0.32725,-0.220195 l -0.18787,0.347463 c 0.43131,-0.433397 -1.09857,-0.684881 0.30704,-0.562584 0.55125,0.0074 -1.13163,-0.327717 0.0323,-0.526266 -0.53493,0.561829 -0.26635,-1.029777 -0.73475,0.259788 -0.0389,-0.234825 -0.72255,0.47146 -0.75005,-0.221405 l -0.28685,0.07677 c 0.0693,-0.431054 -0.91096,0.652824 -0.38787,-0.48079 -0.30811,-0.263867 -0.0338,0.102985 -0.25251,0.202012 0.0205,-0.405939 -0.88309,1.074366 -0.11143,-0.447802 0.20436,-0.32554 -0.45375,-0.760463 -0.61986,-0.380451 -0.54464,0.440029 0.4641,-0.791019 -0.61009,0.06869 0.33278,0.507371 -0.72511,-0.200852 -0.16362,-0.422207 l 0.002,-0.0081 c -0.27158,0.05336 -0.78477,0.235258 -0.24243,-0.256556 0.50956,0.165483 -0.43119,-0.03682 -0.202,-0.256557 l -0.15354,0.15353 c -0.0583,-0.194558 -0.51329,0.05499 -0.40201,-0.181812 l -0.0142,-0.294939 0.43432,-0.07677 c -0.24627,0.04932 -0.48982,-0.422591 -0.62826,-0.03838 l -0.0585,-0.339383 -0.0464,-0.466649 c 0.0112,0.556746 -0.0106,-0.327075 -0.24847,-0.14949 -0.17599,-0.116658 -0.34132,-0.880247 -0.30707,-0.337361 l -0.28281,0.387864 -0.31918,-0.210093 c -0.0679,0.566784 -0.31083,-1.155782 -0.64614,-0.242681 -0.27868,-0.07485 0.47086,-0.783011 -0.24676,-0.337097 0.56403,0.128868 -0.49896,0.573798 -0.25251,0.107068 l -0.23838,-0.46059 c 0.34814,-0.168626 -0.54727,-0.765807 -0.36873,0.16384 -0.2434,0.03636 -0.29244,-0.87648 -0.57669,-0.307269 -0.0493,-0.884411 -1.18132,-0.80273 -1.47874,-1.529238 -0.30494,-0.022 -0.7214,-0.158339 -0.804,0.309081 -0.0494,-0.408774 -0.46863,0.372992 -0.65049,-0.01616 0.55192,-0.516494 -0.68798,-0.452273 -0.73735,-1.001985 -1.13386,-0.462248 -2.51276,-0.357246 -3.50491,-1.024206 -0.32492,-4.64e-4 -0.56291,-0.483915 -0.903,-0.272717 z m 5.41597,2.106995 c 0.12042,-0.07533 -0.20681,-0.131619 0,0 z m 6.19776,3.684716 c -0.30431,0.332084 0.3814,-0.432741 0.18181,0.256557 l -0.30101,-0.08484 c 0.32138,-0.04281 -0.18293,-0.02595 0.1192,-0.171712 z m 1.08278,0.298978 c 0.15857,0.04215 -0.007,-0.564406 0,0 z m -0.18382,-0.004 c 0.28651,0.20114 0.0898,-0.372899 0,0 z m 0.28078,0.406046 c 0.24028,0.175495 -0.0286,-0.09467 0,0 z m -23.38096,0.317161 c -0.0142,0.267082 -0.19793,-0.127346 0,0 z m 24.04559,0.197973 c 0.14595,0.159419 0.11959,-0.539974 0,0 z m 0.15555,0.206053 c 0.23467,-0.66853 0.27368,1.452143 -0.2202,-0.02424 0.48109,0.284627 -0.40166,-0.457844 0.2202,0.02424 z m -24.17085,-0.08686 c 0.3994,0.264556 -0.64654,-0.01558 0,0 z m 26.70813,1.181775 c -0.18056,0.06683 0.0192,-0.162859 0,0 z m 0.98785,0.438368 c 0.28585,0.318112 0.11805,-0.425148 0,0 z m -0.79796,0.373724 c 0.0267,0.08623 -0.67079,0.299246 -0.22827,-0.09091 z m 0.10708,0.01212 c -0.006,0.04085 -0.0162,-0.0081 0,0 z m 0.10504,0.442407 0.55954,0.0049 c 0.56972,0.111588 -0.7219,-0.662596 -0.61206,-0.396771 z m -24.99506,6.508857 -0.0545,0.202012 c 0.0819,0.0085 0.21425,-0.386759 0.0545,-0.202012 z m 0.6222,0.206052 c 0.0846,0.144068 0.0178,-0.142716 0,0 z m -0.0142,0.05253 c 0.0577,0.142882 0.0662,-0.108822 0,0 z m -0.18788,0.226254 c -0.51541,0.491398 0.68982,0.571282 0.24242,-0.05657 l -0.0808,-0.0505 z m 3.28676,0.31312 c 0.28353,0.451574 -0.75573,0.186112 -0.34342,-0.117168 z m -0.81816,-0.04444 c 0.0759,0.473039 -0.38751,-0.06254 0,0 z m 0.2101,0.311101 c -0.1262,0.290747 0.73716,0.114862 0.15352,0.343422 -0.11842,-5.2e-4 -0.49531,-0.504649 -0.15352,-0.343422 z m 9.40976,0.193932 c 0.20426,0.283327 0.051,0.146075 -0.1212,-0.004 z m -9.34715,0.06869 c 0.0754,0.07175 -0.0165,-0.129619 0,0 z m 7.77751,0.09697 c 0.44501,0.627505 -1.03602,0.61044 -0.38181,-0.02222 l 0.097,-0.02828 z m -7.09469,0.49291 -0.0869,-0.361602 z m 2.49081,-0.111106 c 0.21354,0.473654 -1.17788,-0.903739 0,0 z m -1.46863,-0.107067 c -0.009,0.631553 -0.4944,-0.416777 0,0 z m 0.50907,0.03838 c 0.17116,0.275594 -0.38779,0.813298 -0.16362,0.206053 -0.0424,-0.08642 0.0462,-0.274366 0.16362,-0.206053 z m 0.83838,0.270683 c 0.0339,0.321608 -0.62229,0.06289 -0.12525,-0.10101 z m -1.1535,0.119188 c 0.0432,0.28103 -0.61837,-0.09309 -0.17776,-0.10101 z m -0.29493,0.195953 c 0.0583,0.352437 -0.26687,-0.125781 0,0 z m 0.55957,0.161611 c -0.23875,0.39375 0.70092,0.305755 0.32524,-0.0021 0.0764,0.401279 -0.18492,-0.07853 -0.32524,0.0021 z m 1.99388,0.668663 c 0.32024,-0.01681 0.24617,-0.512621 0,0 z"
         id="path48"
         sodipodi:nodetypes="cscscscscscscscscscscscscscscscscscscscscscscscscscscscscscscscscscscscscscscscscscscscscscsc" /></g></g></svg>
